<svg width="67" height="39" viewBox="0 0 67 39" fill="none" xmlns="http://www.w3.org/2000/svg">
<g id="SVG" clip-path="url(#clip0_11011_28274)">
<g id="SvgjsG2548">
<g id="SvgjsG2560">
<g id="SvgjsG2561">
<g id="Clip path group">
<mask id="mask0_11011_28274" style="mask-type:luminance" maskUnits="userSpaceOnUse" x="-2" y="0" width="71" height="39">
<g id="gridRectMaskwlkavnez">
<path id="SvgjsRect2558" d="M68.535 0.664062H-1.40869V38.4715H68.535V0.664062Z" fill="white"/>
</g>
</mask>
<g mask="url(#mask0_11011_28274)">
<path id="SvgjsPath2563" d="M1.98535 38.4714V29.0195H4.99276V38.4714H1.98535Z" fill="#5B73E8" fill-opacity="0.85"/>
</g>
</g>
<g id="Clip path group_2">
<mask id="mask1_11011_28274" style="mask-type:luminance" maskUnits="userSpaceOnUse" x="-2" y="0" width="71" height="39">
<g id="gridRectMaskwlkavnez_2">
<path id="SvgjsRect2558_2" d="M68.535 0.664062H-1.40869V38.4715H68.535V0.664062Z" fill="white"/>
</g>
</mask>
<g mask="url(#mask1_11011_28274)">
<path id="SvgjsPath2564" d="M8.00024 38.4705V13.5176H11.0077V38.4705H8.00024Z" fill="#5B73E8" fill-opacity="0.85"/>
</g>
</g>
<g id="Clip path group_3">
<mask id="mask2_11011_28274" style="mask-type:luminance" maskUnits="userSpaceOnUse" x="-2" y="0" width="71" height="39">
<g id="gridRectMaskwlkavnez_3">
<path id="SvgjsRect2558_3" d="M68.535 0.664062H-1.40869V38.4715H68.535V0.664062Z" fill="white"/>
</g>
</mask>
<g mask="url(#mask2_11011_28274)">
<path id="SvgjsPath2565" d="M14.0149 38.4708V22.9697H17.0223V38.4708H14.0149Z" fill="#5B73E8" fill-opacity="0.85"/>
</g>
</g>
<g id="Clip path group_4">
<mask id="mask3_11011_28274" style="mask-type:luminance" maskUnits="userSpaceOnUse" x="-2" y="0" width="71" height="39">
<g id="gridRectMaskwlkavnez_4">
<path id="SvgjsRect2558_4" d="M68.535 0.664062H-1.40869V38.4715H68.535V0.664062Z" fill="white"/>
</g>
</mask>
<g mask="url(#mask3_11011_28274)">
<path id="SvgjsPath2566" d="M20.0298 38.4718V4.82324H23.0372V38.4718H20.0298Z" fill="#5B73E8" fill-opacity="0.85"/>
</g>
</g>
<g id="Clip path group_5">
<mask id="mask4_11011_28274" style="mask-type:luminance" maskUnits="userSpaceOnUse" x="-2" y="0" width="71" height="39">
<g id="gridRectMaskwlkavnez_5">
<path id="SvgjsRect2558_5" d="M68.535 0.664062H-1.40869V38.4715H68.535V0.664062Z" fill="white"/>
</g>
</mask>
<g mask="url(#mask4_11011_28274)">
<path id="SvgjsPath2567" d="M26.0444 38.471V14.6523H29.0518V38.471H26.0444Z" fill="#5B73E8" fill-opacity="0.85"/>
</g>
</g>
<g id="Clip path group_6">
<mask id="mask5_11011_28274" style="mask-type:luminance" maskUnits="userSpaceOnUse" x="-2" y="0" width="71" height="39">
<g id="gridRectMaskwlkavnez_6">
<path id="SvgjsRect2558_6" d="M68.535 0.664062H-1.40869V38.4715H68.535V0.664062Z" fill="white"/>
</g>
</mask>
<g mask="url(#mask5_11011_28274)">
<path id="SvgjsPath2568" d="M32.0596 38.4714V29.0195H35.067V38.4714H32.0596Z" fill="#5B73E8" fill-opacity="0.85"/>
</g>
</g>
<g id="Clip path group_7">
<mask id="mask6_11011_28274" style="mask-type:luminance" maskUnits="userSpaceOnUse" x="-2" y="0" width="71" height="39">
<g id="gridRectMaskwlkavnez_7">
<path id="SvgjsRect2558_7" d="M68.535 0.664062H-1.40869V38.4715H68.535V0.664062Z" fill="white"/>
</g>
</mask>
<g mask="url(#mask6_11011_28274)">
<path id="SvgjsPath2569" d="M38.0742 38.4712V21.8359H41.0816V38.4712H38.0742Z" fill="#5B73E8" fill-opacity="0.85"/>
</g>
</g>
<g id="Clip path group_8">
<mask id="mask7_11011_28274" style="mask-type:luminance" maskUnits="userSpaceOnUse" x="-2" y="0" width="71" height="39">
<g id="gridRectMaskwlkavnez_8">
<path id="SvgjsRect2558_8" d="M68.535 0.664062H-1.40869V38.4715H68.535V0.664062Z" fill="white"/>
</g>
</mask>
<g mask="url(#mask7_11011_28274)">
<path id="SvgjsPath2570" d="M44.0891 38.4707V30.9092H47.0965V38.4707H44.0891Z" fill="#5B73E8" fill-opacity="0.85"/>
</g>
</g>
<g id="Clip path group_9">
<mask id="mask8_11011_28274" style="mask-type:luminance" maskUnits="userSpaceOnUse" x="-2" y="0" width="71" height="39">
<g id="gridRectMaskwlkavnez_9">
<path id="SvgjsRect2558_9" d="M68.535 0.664062H-1.40869V38.4715H68.535V0.664062Z" fill="white"/>
</g>
</mask>
<g mask="url(#mask8_11011_28274)">
<path id="SvgjsPath2571" d="M50.1038 38.471V24.8604H53.1112V38.471H50.1038Z" fill="#5B73E8" fill-opacity="0.85"/>
</g>
</g>
<g id="Clip path group_10">
<mask id="mask9_11011_28274" style="mask-type:luminance" maskUnits="userSpaceOnUse" x="-2" y="0" width="71" height="39">
<g id="gridRectMaskwlkavnez_10">
<path id="SvgjsRect2558_10" d="M68.535 0.664062H-1.40869V38.4715H68.535V0.664062Z" fill="white"/>
</g>
</mask>
<g mask="url(#mask9_11011_28274)">
<path id="SvgjsPath2572" d="M56.1187 38.4706V23.3477H59.1261V38.4706H56.1187Z" fill="#5B73E8" fill-opacity="0.85"/>
</g>
</g>
<g id="Clip path group_11">
<mask id="mask10_11011_28274" style="mask-type:luminance" maskUnits="userSpaceOnUse" x="-2" y="0" width="71" height="39">
<g id="gridRectMaskwlkavnez_11">
<path id="SvgjsRect2558_11" d="M68.535 0.664062H-1.40869V38.4715H68.535V0.664062Z" fill="white"/>
</g>
</mask>
<g mask="url(#mask10_11011_28274)">
<path id="SvgjsPath2573" d="M62.1335 38.4717V18.0557H65.141V38.4717H62.1335Z" fill="#5B73E8" fill-opacity="0.85"/>
</g>
</g>
</g>
</g>
</g>
</g>
<defs>
<clipPath id="clip0_11011_28274">
<rect width="66.163" height="37.8074" fill="white" transform="translate(0.481445 0.661133)"/>
</clipPath>
</defs>
</svg>
