<?xml version="1.0" ?><!DOCTYPE svg  PUBLIC '-//W3C//DTD SVG 1.1//EN'  'http://www.w3.org/Graphics/SVG/1.1/DTD/svg11.dtd'><svg enable-background="new 0 0 24 24" height="24px" id="Layer_1" version="1.1" viewBox="0 0 24 24" width="24px" xml:space="preserve" xmlns="http://www.w3.org/2000/svg" xmlns:xlink="http://www.w3.org/1999/xlink"><g><path d="M16.938,24H6.5C2.916,24,0,21.084,0,17.5v-11C0,2.916,2.916,0,6.5,0h7C17.084,0,20,2.916,20,6.5v1.125   C20,8.833,20.48,9,21,9c1.654,0,3,1.346,3,3v5.188C24,21.135,21.029,24,16.938,24z M6.5,1C3.467,1,1,3.468,1,6.5v11   C1,20.532,3.467,23,6.5,23h10.438c3.569,0,6.063-2.391,6.063-5.813V12c0-1.104-0.897-2-2-2c-0.747,0-2-0.309-2-2.375V6.5   c0-3.032-2.467-5.5-5.5-5.5H6.5z"/><path d="M12.5,9h-5C6.673,9,6,8.327,6,7.5S6.673,6,7.5,6h5C13.327,6,14,6.673,14,7.5S13.327,9,12.5,9z M7.5,7   C7.224,7,7,7.225,7,7.5S7.224,8,7.5,8h5C12.775,8,13,7.775,13,7.5S12.775,7,12.5,7H7.5z"/><path d="M16.5,18h-9C6.673,18,6,17.327,6,16.5S6.673,15,7.5,15h9c0.827,0,1.5,0.673,1.5,1.5S17.327,18,16.5,18z M7.5,16   C7.224,16,7,16.225,7,16.5S7.224,17,7.5,17h9c0.275,0,0.5-0.225,0.5-0.5S16.775,16,16.5,16H7.5z"/></g></svg>