<?xml version="1.0" ?><svg id="Layer_1" style="enable-background:new 0 0 32 32;" version="1.1" viewBox="0 0 32 32" xml:space="preserve" xmlns="http://www.w3.org/2000/svg" xmlns:xlink="http://www.w3.org/1999/xlink"><g><g><path d="M16,1c-2.3652954,0-4.2827759,1.9174805-4.2827759,4.2827759S13.6347046,9.5655518,16,9.5655518    s4.2827759-1.9174805,4.2827759-4.2827759S18.3652954,1,16,1z M16,7.2827759c-1.1045532,0-2-0.8954468-2-2s0.8954468-2,2-2    s2,0.8954468,2,2S17.1045532,7.2827759,16,7.2827759z"/></g><g><circle cx="16" cy="26.7172127" r="4.2827868"/></g><g><circle cx="5.2827868" cy="26.7172127" r="4.2827868"/></g><g><circle cx="26.7172127" cy="26.7172127" r="4.2827868"/></g><g><path d="M16,23.4345703c-0.5522461,0-1-0.4477539-1-1V9.5654297c0-0.5522461,0.4477539-1,1-1s1,0.4477539,1,1v12.8691406    C17,22.9868164,16.5522461,23.4345703,16,23.4345703z"/></g><g><path d="M26.7172852,23.4511719c-0.5522461,0-1-0.4477539-1-1V15.237793H6.2827148v7.1967773c0,0.5522461-0.4477539,1-1,1    s-1-0.4477539-1-1V14.237793c0-0.5522461,0.4477539-1,1-1h21.4345703c0.5522461,0,1,0.4477539,1,1v8.2133789    C27.7172852,23.003418,27.2695313,23.4511719,26.7172852,23.4511719z"/></g></g></svg>